<svg data-v-423bf9ae="" xmlns="http://www.w3.org/2000/svg" viewBox="0 0 498 96" class="iconLeft"><!----><!----><!----><g data-v-423bf9ae="" id="c21cc616-8161-4a6e-8471-7b14f989decf" fill="#2B1C36" transform="matrix(5.660377154786554,0,0,5.660377154786554,94.60372522088227,17.05744308758966)"><path d="M0.67 5.73C0.67 7.36 1.16 8.68 2.00 9.52C2.87 10.39 4.24 10.71 5.81 10.71C6.93 10.71 8.22 10.40 8.89 10.04L9.09 7.70L8.67 7.70C8.27 9.16 7.56 10.22 5.73 10.22C2.84 10.22 2.24 7.38 2.24 5.68C2.24 3.39 3.15 1.09 5.75 1.09C7.18 1.09 8.18 1.68 8.44 3.33L8.86 3.33L8.86 1.15C8.23 0.85 7.17 0.60 5.89 0.60C4.17 0.60 2.79 1.11 1.95 2.04C1.15 2.94 0.67 4.14 0.67 5.73ZM9.86 10.50L13.27 10.50L13.27 10.09C12.28 10.02 12.22 10.00 12.22 9.28L12.22 0.20L12.12 0.11L9.93 0.46L9.93 0.81L10.46 0.87C10.82 0.91 10.91 0.98 10.91 1.51L10.91 9.28C10.91 10.00 10.86 10.02 9.86 10.09ZM14.17 7.07C14.17 9.34 15.27 10.67 17.53 10.67C19.78 10.67 20.89 9.34 20.89 7.07C20.89 4.80 19.78 3.47 17.53 3.47C15.27 3.47 14.17 4.80 14.17 7.07ZM15.62 7.07C15.62 5.14 16.24 3.96 17.53 3.96C18.82 3.96 19.43 5.14 19.43 7.07C19.43 9.00 18.82 10.18 17.53 10.18C16.24 10.18 15.62 9.00 15.62 7.07ZM21.92 4.17L22.46 4.24C22.82 4.30 22.90 4.37 22.90 4.87L22.90 8.57C22.90 10.18 23.86 10.67 24.89 10.67C26.08 10.67 27.05 9.86 27.45 9.66L27.59 10.50L29.83 10.50L29.83 10.09C28.87 10.02 28.78 10.00 28.78 9.28L28.78 3.56L28.69 3.47L26.49 3.82L26.49 4.17L27.02 4.24C27.38 4.30 27.47 4.37 27.47 4.87L27.47 8.02C27.47 8.41 27.43 8.72 27.36 8.86C27.03 9.51 26.36 9.91 25.63 9.91C24.82 9.91 24.22 9.41 24.22 8.32L24.22 3.56L24.12 3.47L21.92 3.82ZM30.73 7.21C30.73 9.28 31.81 10.67 33.66 10.67C34.41 10.67 35.07 10.33 35.83 9.72L35.83 10.40L35.94 10.50L38.21 10.50L38.21 10.09C37.21 10.02 37.16 10.00 37.16 9.28L37.16 0.20L37.06 0.11L34.86 0.46L34.86 0.81L35.39 0.87C35.76 0.91 35.84 0.98 35.84 1.51L35.84 3.81C35.45 3.60 34.93 3.47 34.29 3.47C33.14 3.47 32.28 3.84 31.70 4.44C31.09 5.07 30.73 5.99 30.73 7.21ZM32.19 7.04C32.19 5.22 32.84 3.96 34.27 3.96C34.93 3.96 35.46 4.27 35.71 4.84C35.83 5.08 35.84 5.28 35.84 5.66L35.84 8.12C35.84 8.43 35.83 8.67 35.74 8.90C35.46 9.63 34.85 9.91 34.12 9.91C32.83 9.91 32.19 8.65 32.19 7.04ZM42.27 7.63L42.41 9.87C43.02 10.44 44.18 10.71 45.16 10.71C47.64 10.71 48.62 9.30 48.62 7.87C48.62 6.22 47.50 5.43 45.86 4.83L45.42 4.66C44.48 4.31 43.69 3.71 43.69 2.87C43.69 1.85 44.31 1.09 45.49 1.09C46.69 1.09 47.36 1.78 47.59 3.19L48.02 3.19L48.02 1.22C47.54 0.84 46.59 0.60 45.64 0.60C43.93 0.60 42.42 1.46 42.42 3.30C42.42 4.77 43.60 5.54 45.07 6.06L45.32 6.16C45.93 6.40 47.26 7.04 47.26 8.29C47.26 9.49 46.49 10.22 45.25 10.22C43.93 10.22 43.06 9.20 42.71 7.63ZM49.57 4.20L50.58 4.20L50.58 9.07C50.58 10.50 51.65 10.67 52.14 10.67C52.85 10.67 53.52 10.30 53.93 10.05L53.82 9.76C53.48 9.90 53.17 9.94 52.82 9.94C52.35 9.94 51.90 9.60 51.90 8.54L51.90 4.20L53.70 4.20L53.70 3.64L51.90 3.64L51.90 1.88L51.49 1.88L50.64 3.64L49.57 3.64ZM54.64 8.68C54.64 9.73 55.34 10.67 56.66 10.67C57.47 10.67 58.30 10.12 58.74 9.83C58.94 10.35 59.16 10.67 59.65 10.67C60.17 10.67 60.77 10.51 61.31 10.25L61.22 9.91C61.03 9.95 60.72 9.98 60.51 9.93C60.26 9.87 60.02 9.60 60.02 8.72L60.02 5.33C60.02 4.52 59.84 3.47 57.72 3.47C56.14 3.47 54.89 4.30 54.89 5.07C54.89 5.52 55.41 5.73 55.68 5.73C55.97 5.73 56.06 5.57 56.13 5.33C56.43 4.30 57.01 3.96 57.57 3.96C58.11 3.96 58.76 4.24 58.76 5.36L58.76 5.95C58.41 6.31 57.05 6.66 55.94 7.01C54.94 7.32 54.64 8.02 54.64 8.68ZM56.06 8.48C56.06 7.83 56.36 7.49 57.15 7.20C57.71 6.99 58.45 6.72 58.76 6.52L58.76 8.50C58.76 9.63 57.89 9.93 57.34 9.93C56.48 9.93 56.06 9.31 56.06 8.48ZM61.70 4.20L62.78 4.20L62.78 9.28C62.78 10.00 62.73 10.02 61.73 10.09L61.73 10.50L65.42 10.50L65.42 10.09C64.15 10.04 64.09 10.01 64.09 9.30L64.09 4.20L65.80 4.20L65.80 3.64L64.09 3.64L64.04 2.07C63.99 0.74 64.48 0.60 64.71 0.60C65.00 0.60 65.31 0.74 65.66 1.55C65.73 1.69 65.83 1.79 66.04 1.79C66.32 1.79 66.72 1.55 66.72 1.13C66.72 0.67 66.14 0.11 65.02 0.11C64.25 0.11 63.59 0.46 63.24 0.99C62.92 1.48 62.78 2.23 62.78 3.15L62.78 3.64L61.70 3.64ZM66.16 4.20L67.24 4.20L67.24 9.28C67.24 10.00 67.20 10.02 66.19 10.09L66.19 10.50L69.89 10.50L69.89 10.09C68.61 10.04 68.56 10.01 68.56 9.30L68.56 4.20L70.27 4.20L70.27 3.64L68.56 3.64L68.50 2.07C68.46 0.74 68.95 0.60 69.17 0.60C69.47 0.60 69.78 0.74 70.13 1.55C70.20 1.69 70.29 1.79 70.50 1.79C70.78 1.79 71.19 1.55 71.19 1.13C71.19 0.67 70.60 0.11 69.48 0.11C68.71 0.11 68.05 0.46 67.70 0.99C67.38 1.48 67.24 2.23 67.24 3.15L67.24 3.64L66.16 3.64Z"></path></g><defs data-v-423bf9ae=""><linearGradient data-v-423bf9ae="" gradientTransform="rotate(25)" id="d07a4428-367c-4660-be7e-3d0a213c155c" x1="0%" y1="0%" x2="100%" y2="0%"><stop data-v-423bf9ae="" offset="0%" style="stop-color: rgb(75, 39, 155); stop-opacity: 1;"></stop><stop data-v-423bf9ae="" offset="100%" style="stop-color: rgb(223, 153, 216); stop-opacity: 1;"></stop></linearGradient></defs><g data-v-423bf9ae="" id="e40d31de-5d1f-4b91-a9a9-2c3710fe9214" transform="matrix(1.0293480767144096,0,0,1.0293480767144096,-11.547920114071651,-2.7880481367330034)" stroke="none" fill="url(#d07a4428-367c-4660-be7e-3d0a213c155c)"><path d="M87.31 37.88H69.18a4.218 4.218 0 0 0-3.38-3.38v-2.2c0-1.71-1.39-3.09-3.09-3.09-.42 0-.77.35-.77.77s.35.77.77.77c.85 0 1.55.69 1.55 1.55v2.2a4.22 4.22 0 0 0-3.38 3.38H39.12a4.218 4.218 0 0 0-3.38-3.38v-2.2c0-.86.69-1.55 1.55-1.55.42 0 .77-.35.77-.77s-.35-.77-.77-.77c-1.7 0-3.09 1.38-3.09 3.09v2.2a4.218 4.218 0 0 0-3.38 3.38H12.69a.77.77 0 0 0-.77.77v14.88c0 3.25 2.35 5.96 5.43 6.529v35.49c0 .431.35.771.77.771h63.76c.42 0 .771-.34.771-.771V60.06c3.08-.569 5.43-3.279 5.43-6.529V38.65a.772.772 0 0 0-.771-.77zm-12.1 53.33H24.79c-.43 0-.77-.34-.77-.77a.77.77 0 0 1 .77-.771h50.42a.771.771 0 0 1 0 1.541zm-17.4-26.68c0 4.3-3.51 7.8-7.81 7.8-4.31 0-7.81-3.5-7.81-7.8v-8.11h15.62v8.11zm28.73-11c0 2.8-2.26 5.08-5.06 5.109H59.34V55.65a.762.762 0 0 0-.76-.771H41.42a.77.77 0 0 0-.77.771v2.989H18.52a5.114 5.114 0 0 1-5.06-5.109V39.41h73.08v14.12z"></path><path d="M50 68.15a3.625 3.625 0 0 0 0-7.25 3.625 3.625 0 0 0 0 7.25zM40.02 9.83c-.05.05-.11.09-.16.15a4.11 4.11 0 0 0-1.13 2.92l.11 5.87.06 12.07v.45l.04 1.31c.02.89.38 1.71 1.02 2.32.6.58 1.38.89 2.21.89h.08c.95-.03 1.79-.47 2.36-1.14a3.304 3.304 0 0 0 2.63 1.29h.09c.89-.02 1.72-.39 2.34-1.04.06-.06.11-.13.17-.2a3.286 3.286 0 0 0 2.59 1.24h.08a3.282 3.282 0 0 0 2.51-1.24c.091.11.19.22.29.32.631.6 1.44.92 2.301.92h.09c.89-.02 1.72-.39 2.34-1.04.61-.64.94-1.49.92-2.37v-1.71l-.02-12.25a.76.76 0 0 0-.761-.76h-.01a.76.76 0 0 0-.76.76l.01 12.25v1.74c.01.48-.16.94-.5 1.29-.33.35-.78.54-1.26.56-.48.01-.94-.17-1.29-.5-.351-.33-.55-.78-.561-1.26l-.029-1.33-.011-.47v-.07c-.01-.04-.01-.08-.02-.12v-.01a.763.763 0 0 0-.75-.59H54.93c-.029 0-.06.01-.09.01-.02.01-.04.02-.07.02-.02.01-.05.02-.069.03-.021.01-.05.02-.07.04l-.06.03c-.021.02-.04.04-.07.05-.01.02-.03.03-.04.04-.02.03-.04.05-.06.08a.11.11 0 0 0-.03.04.369.369 0 0 0-.05.09.11.11 0 0 0-.03.04l-.03.1c0 .02-.01.03-.01.04-.01.04-.01.08-.01.12 0 .01-.01.02-.01.03v1.74c.02.48-.16.94-.49 1.29s-.78.55-1.271.56c-.479.01-.93-.16-1.279-.5-.36-.33-.551-.78-.57-1.26l-.03-1.33-.01-.5v-.07c-.01-.03-.01-.06-.01-.08-.011-.01-.011-.02-.011-.04a.77.77 0 0 0-.74-.57h-.07c-.03.01-.06.01-.09.02-.02 0-.04.01-.06.01l-.09.03c-.01.01-.03.02-.05.03-.02.01-.05.03-.08.04l-.04.04c-.02.02-.05.04-.07.06l-.04.04c-.02.03-.04.05-.05.07l-.03.06c-.02.02-.03.05-.04.07-.01.02-.02.05-.02.07-.01.02-.02.05-.03.08 0 .02 0 .05-.01.07v1.81c.01.48-.17.94-.5 1.29-.33.35-.78.55-1.26.56-.48.01-.94-.16-1.29-.5-.35-.33-.55-.78-.56-1.26l-.04-1.33v-.56a.77.77 0 0 0-1.54 0v1.7c.03.97-.72 1.78-1.65 1.8-.44.01-.87-.15-1.19-.46-.35-.33-.54-.77-.55-1.25l-.04-1.31v-.49l-.06-12.01-.1-5.89c-.02-.68.23-1.33.7-1.83.48-.5 1.11-.78 1.8-.8h.01l14.36-.36 2.851 2.49c1.81 1.61 4.68 4.73 4.68 6.23v7.31c0 .43.35.77.771.77.43 0 .77-.34.77-.77V18.6c0-2.67-4.67-6.9-5.21-7.38l-1.89-1.66c.33-.16.64-.38.899-.65.57-.6.87-1.39.851-2.21-.04-1.69-1.471-3.07-3.17-3.02l-16.182.41c-.83.02-1.6.36-2.17.96-.57.6-.87 1.38-.85 2.21.03 1.08.64 2.04 1.53 2.57z"></path></g><!----></svg>